<svg xmlns="http://www.w3.org/2000/svg" viewBox="0 0 100 100" width="100" height="100" role="img" aria-label="HornDB">
  <title>HornDB mark (square, transparent)</title>
  <g transform="translate(29.020,8.000) scale(0.083141)">
    <g transform="translate(-205.115669,1016.992559) scale(0.1,-0.1)" fill="#C0501C">
    <path d="M2765 10152 c-161 -56 -280 -189 -314 -350 -8 -37 -11 -564 -11 -1792 l0 -1740 470 0 470 0 0 1753 c0 1894 3 1794 -54 1905 -52 102 -155 188 -268 224 -79 24 -223 24 -293 0z"/>
    <path d="M6517 9329 c-140 -33 -277 -155 -334 -299 -17 -42 -18 -154 -23 -1940 -6 -2138 2 -1926 -88 -2110 -38 -78 -61 -110 -132 -181 -168 -169 -346 -237 -589 -226 -293 13 -522 166 -653 434 l-39 82 -86 -89 c-126 -132 -256 -224 -404 -285 l-80 -33 73 -46 c552 -343 886 -917 920 -1576 l3 -55 -145 0 -145 0 -12 110 c-52 483 -251 869 -591 1142 -284 229 -567 334 -944 350 l-148 6 0 143 0 142 353 5 c383 4 412 8 562 66 223 86 403 251 510 466 66 134 87 222 92 398 l5 148 -1063 -3 c-1183 -4 -1095 2 -1234 -71 -124 -66 -235 -215 -265 -357 -8 -40 -10 -287 -8 -900 4 -921 3 -895 64 -1108 148 -513 581 -982 1134 -1231 203 -92 427 -149 670 -173 69 -6 126 -12 127 -13 1 0 -6 -63 -16 -140 l-17 -140 -47 -3 c-166 -11 -598 95 -862 210 -49 22 -96 42 -102 45 -15 6 -20 -2022 -5 -2030 4 -3 223 41 487 98 264 57 766 164 1115 238 888 190 1148 246 1515 325 176 39 346 75 378 82 l57 11 0 635 0 635 -30 -21 c-128 -91 -448 -202 -652 -226 l-55 -6 -17 123 c-23 172 -23 167 22 174 366 59 606 177 842 414 222 223 350 467 413 786 21 110 21 110 24 2810 2 1784 0 2729 -7 2784 -23 196 -165 357 -351 400 -53 13 -170 12 -222 0z"/>
    <path d="M3999 7717 c-160 -58 -278 -194 -309 -356 -6 -32 -10 -261 -10 -572 l0 -519 470 0 470 0 0 545 c0 524 -1 548 -21 607 -43 129 -120 214 -248 276 -101 49 -248 57 -352 19z"/>
    <path d="M5326 7548 c-187 -19 -360 -182 -395 -372 -15 -81 -15 -1835 0 -1926 43 -264 314 -442 572 -375 170 44 300 170 342 330 21 84 23 1920 1 2001 -61 231 -269 368 -520 342z"/>
    </g>
  </g>
</svg>
