<svg xmlns="http://www.w3.org/2000/svg" viewBox="0 0 205 70" width="205" height="70" role="img" aria-label="HornDB">
  <title>HornDB horizontal logo (light)</title>
  <g transform="translate(12.000,9.500) scale(0.050478)">
    <g transform="translate(-205.115669,1016.992559) scale(0.1,-0.1)" fill="#C0501C">
    <path d="M2765 10152 c-161 -56 -280 -189 -314 -350 -8 -37 -11 -564 -11 -1792 l0 -1740 470 0 470 0 0 1753 c0 1894 3 1794 -54 1905 -52 102 -155 188 -268 224 -79 24 -223 24 -293 0z"/>
    <path d="M6517 9329 c-140 -33 -277 -155 -334 -299 -17 -42 -18 -154 -23 -1940 -6 -2138 2 -1926 -88 -2110 -38 -78 -61 -110 -132 -181 -168 -169 -346 -237 -589 -226 -293 13 -522 166 -653 434 l-39 82 -86 -89 c-126 -132 -256 -224 -404 -285 l-80 -33 73 -46 c552 -343 886 -917 920 -1576 l3 -55 -145 0 -145 0 -12 110 c-52 483 -251 869 -591 1142 -284 229 -567 334 -944 350 l-148 6 0 143 0 142 353 5 c383 4 412 8 562 66 223 86 403 251 510 466 66 134 87 222 92 398 l5 148 -1063 -3 c-1183 -4 -1095 2 -1234 -71 -124 -66 -235 -215 -265 -357 -8 -40 -10 -287 -8 -900 4 -921 3 -895 64 -1108 148 -513 581 -982 1134 -1231 203 -92 427 -149 670 -173 69 -6 126 -12 127 -13 1 0 -6 -63 -16 -140 l-17 -140 -47 -3 c-166 -11 -598 95 -862 210 -49 22 -96 42 -102 45 -15 6 -20 -2022 -5 -2030 4 -3 223 41 487 98 264 57 766 164 1115 238 888 190 1148 246 1515 325 176 39 346 75 378 82 l57 11 0 635 0 635 -30 -21 c-128 -91 -448 -202 -652 -226 l-55 -6 -17 123 c-23 172 -23 167 22 174 366 59 606 177 842 414 222 223 350 467 413 786 21 110 21 110 24 2810 2 1784 0 2729 -7 2784 -23 196 -165 357 -351 400 -53 13 -170 12 -222 0z"/>
    <path d="M3999 7717 c-160 -58 -278 -194 -309 -356 -6 -32 -10 -261 -10 -572 l0 -519 470 0 470 0 0 545 c0 524 -1 548 -21 607 -43 129 -120 214 -248 276 -101 49 -248 57 -352 19z"/>
    <path d="M5326 7548 c-187 -19 -360 -182 -395 -372 -15 -81 -15 -1835 0 -1926 43 -264 314 -442 572 -375 170 44 300 170 342 330 21 84 23 1920 1 2001 -61 231 -269 368 -520 342z"/>
    </g>
  </g>
  <!-- wordmark: Arial Bold, outlined to paths (no font dependency) -->
  <g transform="translate(-9,0)">
    <path d="M150 0V1466H446V889H1026V1466H1322V0H1026V641H446V0Z" transform="translate(56.00,48.0) scale(0.01953,-0.01953)" fill="#1A1A20"/>
    <path d="M82 546Q82 686 151.0 817.0Q220 948 346.5 1017.0Q473 1086 629 1086Q870 1086 1024.0 929.5Q1178 773 1178 534Q1178 293 1022.5 134.5Q867 -24 631 -24Q485 -24 352.5 42.0Q220 108 151.0 235.5Q82 363 82 546ZM370 531Q370 373 445.0 289.0Q520 205 630 205Q740 205 814.5 289.0Q889 373 889 533Q889 689 814.5 773.0Q740 857 630 857Q520 857 445.0 773.0Q370 689 370 531Z" transform="translate(83.39,48.0) scale(0.01953,-0.01953)" fill="#1A1A20"/>
    <path d="M416 0H135V1062H396V911Q463 1018 516.5 1052.0Q570 1086 638 1086Q734 1086 823 1033L736 788Q665 834 604 834Q545 834 504.0 801.5Q463 769 439.5 684.0Q416 599 416 328Z" transform="translate(106.32,48.0) scale(0.01953,-0.01953)" fill="#1A1A20"/>
    <path d="M1113 0H832V542Q832 714 814.0 764.5Q796 815 755.5 843.0Q715 871 658 871Q585 871 527.0 831.0Q469 791 447.5 725.0Q426 659 426 481V0H145V1062H406V906Q545 1086 756 1086Q849 1086 926.0 1052.5Q1003 1019 1042.5 967.0Q1082 915 1097.5 849.0Q1113 783 1113 660Z" transform="translate(120.39,48.0) scale(0.01953,-0.01953)" fill="#1A1A20"/>
    <path d="M148 1466H689Q872 1466 968 1438Q1097 1400 1189.0 1303.0Q1281 1206 1329.0 1065.5Q1377 925 1377 719Q1377 538 1332 407Q1277 247 1175 148Q1098 73 967 31Q869 0 705 0H148ZM444 1218V247H665Q789 247 844 261Q916 279 963.5 322.0Q1011 365 1041.0 463.5Q1071 562 1071 732Q1071 902 1041.0 993.0Q1011 1084 957.0 1135.0Q903 1186 820 1204Q758 1218 577 1218Z" transform="translate(143.32,48.0) scale(0.01953,-0.01953)" fill="#C0501C"/>
    <path d="M150 1466H736Q910 1466 995.5 1451.5Q1081 1437 1148.5 1391.0Q1216 1345 1261.0 1268.5Q1306 1192 1306 1097Q1306 994 1250.5 908.0Q1195 822 1100 779Q1234 740 1306.0 646.0Q1378 552 1378 425Q1378 325 1331.5 230.5Q1285 136 1204.5 79.5Q1124 23 1006 10Q932 2 649 0H150ZM446 1222V883H640Q813 883 855 888Q931 897 974.5 940.5Q1018 984 1018 1055Q1018 1123 980.5 1165.5Q943 1208 869 1217Q825 1222 616 1222ZM446 639V247H720Q880 247 923 256Q989 268 1030.5 314.5Q1072 361 1072 439Q1072 505 1040.0 551.0Q1008 597 947.5 618.0Q887 639 685 639Z" transform="translate(170.71,48.0) scale(0.01953,-0.01953)" fill="#C0501C"/>
  </g>
</svg>
