<svg xmlns="http://www.w3.org/2000/svg" viewBox="0 0 214 70" width="214" height="70" role="img" aria-label="HornDB">
  <title>HornDB horizontal logo</title>
  <g transform="translate(8.9,2.68) scale(0.517)" fill="#C0501C">
    <path d="M18 66 L18 20 Q18 13 24.5 13 Q31 13 31 20 L31 66 Z"/>
    <path d="M32.5 60 L32.5 51 Q32.5 44 39 44 Q45.5 44 45.5 51 L45.5 60 Z"/>
    <path d="M47 60 L47 53 Q47 46 53.5 46 Q60 46 60 53 L60 60 Z"/>
    <path d="M61.5 66 L61.5 31 Q61.5 24 68 24 Q74.5 24 74.5 31 L74.5 66 Z"/>
    <path d="M16 112 L16 66 Q16 55 24 55 L30 55 Q31.75 68 33.5 55 L45 55 Q46.25 60 47.5 55 L60 55 Q60.75 68 62.5 55 L68 55 Q76 55 76 66 L76 112 Z"/>
    <rect x="6" y="63" width="16" height="34" rx="8" transform="rotate(-22 14 80)"/>
  </g>
  <!-- wordmark: Arial Bold, outlined to paths (no font dependency) -->
  <g>
    <path d="M150 0V1466H446V889H1026V1466H1322V0H1026V641H446V0Z" transform="translate(56.00,48.0) scale(0.01953,-0.01953)" fill="#1A1A20"/>
    <path d="M82 546Q82 686 151.0 817.0Q220 948 346.5 1017.0Q473 1086 629 1086Q870 1086 1024.0 929.5Q1178 773 1178 534Q1178 293 1022.5 134.5Q867 -24 631 -24Q485 -24 352.5 42.0Q220 108 151.0 235.5Q82 363 82 546ZM370 531Q370 373 445.0 289.0Q520 205 630 205Q740 205 814.5 289.0Q889 373 889 533Q889 689 814.5 773.0Q740 857 630 857Q520 857 445.0 773.0Q370 689 370 531Z" transform="translate(83.39,48.0) scale(0.01953,-0.01953)" fill="#1A1A20"/>
    <path d="M416 0H135V1062H396V911Q463 1018 516.5 1052.0Q570 1086 638 1086Q734 1086 823 1033L736 788Q665 834 604 834Q545 834 504.0 801.5Q463 769 439.5 684.0Q416 599 416 328Z" transform="translate(106.32,48.0) scale(0.01953,-0.01953)" fill="#1A1A20"/>
    <path d="M1113 0H832V542Q832 714 814.0 764.5Q796 815 755.5 843.0Q715 871 658 871Q585 871 527.0 831.0Q469 791 447.5 725.0Q426 659 426 481V0H145V1062H406V906Q545 1086 756 1086Q849 1086 926.0 1052.5Q1003 1019 1042.5 967.0Q1082 915 1097.5 849.0Q1113 783 1113 660Z" transform="translate(120.39,48.0) scale(0.01953,-0.01953)" fill="#1A1A20"/>
    <path d="M148 1466H689Q872 1466 968 1438Q1097 1400 1189.0 1303.0Q1281 1206 1329.0 1065.5Q1377 925 1377 719Q1377 538 1332 407Q1277 247 1175 148Q1098 73 967 31Q869 0 705 0H148ZM444 1218V247H665Q789 247 844 261Q916 279 963.5 322.0Q1011 365 1041.0 463.5Q1071 562 1071 732Q1071 902 1041.0 993.0Q1011 1084 957.0 1135.0Q903 1186 820 1204Q758 1218 577 1218Z" transform="translate(143.32,48.0) scale(0.01953,-0.01953)" fill="#C0501C"/>
    <path d="M150 1466H736Q910 1466 995.5 1451.5Q1081 1437 1148.5 1391.0Q1216 1345 1261.0 1268.5Q1306 1192 1306 1097Q1306 994 1250.5 908.0Q1195 822 1100 779Q1234 740 1306.0 646.0Q1378 552 1378 425Q1378 325 1331.5 230.5Q1285 136 1204.5 79.5Q1124 23 1006 10Q932 2 649 0H150ZM446 1222V883H640Q813 883 855 888Q931 897 974.5 940.5Q1018 984 1018 1055Q1018 1123 980.5 1165.5Q943 1208 869 1217Q825 1222 616 1222ZM446 639V247H720Q880 247 923 256Q989 268 1030.5 314.5Q1072 361 1072 439Q1072 505 1040.0 551.0Q1008 597 947.5 618.0Q887 639 685 639Z" transform="translate(170.71,48.0) scale(0.01953,-0.01953)" fill="#C0501C"/>
  </g>
</svg>
